<?xml version="1.0" encoding="UTF-8"?>
<svg id="Layer_1" xmlns="http://www.w3.org/2000/svg" version="1.1" viewBox="0 0 936.7 125.4">
  <!-- Generator: Adobe Illustrator 30.0.0, SVG Export Plug-In . SVG Version: 2.1.1 Build 123)  -->
  <defs>
    <style>
      .st0 {
        fill: #231f20;
      }
    </style>
  </defs>
  <path class="st0" d="M525.4,0c-42.6,0-77.2,27.9-77.2,62.3s34.6,62.3,77.2,62.3,77.2-27.9,77.2-62.3S568.1,0,525.4,0ZM525.4,112.7c-23.1,0-41.9-22.6-41.9-50.4s18.8-50.4,41.9-50.4,41.9,22.6,41.9,50.4-18.8,50.4-41.9,50.4Z"/>
  <polygon class="st0" points="176.4 122.5 283.8 122.5 283.8 110.6 211.1 110.6 211.1 68.3 265.3 68.3 265.3 56.3 211.1 56.3 211.1 13.9 283.8 13.9 283.8 2 176.4 2 176.4 122.5"/>
  <polygon class="st0" points="431 2 389.6 53.2 347.9 2 304.2 2 360 70.9 360 122.5 394.2 122.5 394.2 70.5 449.5 2 431 2"/>
  <path class="st0" d="M755.5,35.1c0-23.9-17.2-33-57.7-33h-71.2v120.5h34.4v-53.7h30.1l30.2,53.7h38.9l-33.7-56.6c20.1-5,29.1-13.3,29.1-30.8h0ZM717.9,37.3c0,12-7.7,19-20.1,19h-36.8V13.9h36.8c12.4,0,20.1,5,20.1,17v6.3h0Z"/>
  <polygon class="st0" points="141.4 2 71.8 2 71.8 13.8 134.6 13.8 90.3 89.5 38.9 2 0 2 68.7 122.5 89.1 122.5 157.6 2 141.4 2 141.4 2"/>
  <polygon class="st0" points="861.8 2 841.3 2 772.9 122.5 789 122.5 789 122.5 858.6 122.5 858.6 110.8 795.9 110.8 840.2 35.1 891.6 122.5 930.5 122.5 861.8 2"/>
  <path d="M930.5,11.2c0,5.2-4.1,9.3-9.4,9.3s-9.5-4.1-9.5-9.3,4.2-9.2,9.5-9.2,9.4,4.1,9.4,9.2ZM913.9,11.2c0,4.1,3,7.3,7.2,7.3s7-3.3,7-7.3-3-7.4-7.1-7.4-7.1,3.3-7.1,7.3ZM919.6,16.1h-2.1V6.9c.8-.2,2-.3,3.5-.3s2.5.3,3.2.7c.5.4.9,1.1.9,2s-.8,1.8-1.9,2.1h0c.9.4,1.4,1.1,1.7,2.4.3,1.4.4,2,.7,2.3h-2.3c-.3-.3-.4-1.2-.7-2.2-.2-1-.7-1.5-1.9-1.5h-1v3.7ZM919.7,10.8h1c1.2,0,2.1-.4,2.1-1.3s-.6-1.4-2-1.4-1,0-1.2.1v2.6Z"/>
</svg>